<svg aria-hidden="true" style="position: absolute; width: 0; height: 0; overflow: hidden;" version="1.1" xmlns="http://www.w3.org/2000/svg" xmlns:xlink="http://www.w3.org/1999/xlink">
<defs>
<symbol id="icon-facebook" viewBox="0 0 32 32">
<path fill="#485a96" style="fill: var(--color1, #485a96)" d="M30.234 32c0.975 0 1.766-0.791 1.766-1.766v-28.468c0-0.976-0.791-1.766-1.766-1.766h-28.468c-0.976 0-1.766 0.791-1.766 1.766v28.468c0 0.975 0.79 1.766 1.766 1.766h28.468z"></path>
<path fill="#fff" style="fill: var(--color2, #fff)" d="M22.079 32v-12.392h4.159l0.623-4.829h-4.782v-3.083c0-1.398 0.388-2.351 2.393-2.351l2.557-0.001v-4.319c-0.442-0.059-1.96-0.19-3.726-0.19-3.687 0-6.212 2.251-6.212 6.384v3.562h-4.17v4.829h4.17v12.392h4.987z"></path>
</symbol>
<symbol id="icon-github" viewBox="0 0 32 32">
<path d="M16 0.667c-8.84 0-16 7.040-16 15.723 0 6.948 4.584 12.84 10.94 14.917 0.8 0.148 1.093-0.339 1.093-0.756 0-0.373-0.013-1.363-0.020-2.673-4.451 0.948-5.389-2.109-5.389-2.109-0.728-1.815-1.78-2.3-1.78-2.3-1.449-0.975 0.112-0.955 0.112-0.955 1.607 0.109 2.451 1.62 2.451 1.62 1.427 2.404 3.745 1.709 4.66 1.308 0.144-1.017 0.556-1.709 1.013-2.103-3.553-0.393-7.288-1.745-7.288-7.769 0-1.716 0.62-3.119 1.647-4.219-0.18-0.397-0.72-1.996 0.14-4.161 0 0 1.34-0.421 4.4 1.612 1.28-0.349 2.64-0.523 4-0.531 1.36 0.008 2.72 0.181 4 0.531 3.040-2.033 4.38-1.612 4.38-1.612 0.86 2.165 0.32 3.764 0.16 4.161 1.020 1.1 1.64 2.503 1.64 4.219 0 6.040-3.74 7.369-7.3 7.756 0.56 0.472 1.080 1.436 1.080 2.909 0 2.104-0.020 3.795-0.020 4.305 0 0.412 0.28 0.904 1.1 0.747 6.401-2.064 10.981-7.96 10.981-14.897 0-8.683-7.164-15.723-16-15.723z"></path>
</symbol>
<symbol id="icon-linkedin" viewBox="0 0 32 32">
<path fill="#069" style="fill: var(--color3, #069)" d="M0 2.292c0-1.265 1.059-2.292 2.365-2.292h27.27c1.306 0 2.365 1.027 2.365 2.292v27.416c0 1.266-1.059 2.292-2.365 2.292h-27.27c-1.306 0-2.365-1.026-2.365-2.291v-27.417z"></path>
<path fill="#fff" style="fill: var(--color2, #fff)" d="M9.725 26.78v-14.406h-4.788v14.406h4.789zM7.331 10.407c1.67 0 2.709-1.106 2.709-2.489-0.031-1.414-1.039-2.489-2.677-2.489-1.639 0-2.709 1.075-2.709 2.489 0 1.382 1.039 2.489 2.646 2.489h0.031zM12.375 26.78h4.788v-8.044c0-0.43 0.031-0.861 0.158-1.168 0.346-0.861 1.134-1.752 2.457-1.752 1.732 0 2.426 1.321 2.426 3.258v7.706h4.788v-8.26c0-4.425-2.362-6.484-5.512-6.484-2.583 0-3.717 1.444-4.348 2.427h0.032v-2.089h-4.788c0.063 1.351 0 14.406 0 14.406z"></path>
</symbol>
<symbol id="icon-telegram" viewBox="0 0 31 32">
<path d="M15.5 0.5c-8.56 0-15.5 6.94-15.5 15.5s6.94 15.5 15.5 15.5 15.5-6.94 15.5-15.5-6.94-15.5-15.5-15.5zM22.684 11.041c-0.233 2.451-1.243 8.399-1.756 11.144-0.217 1.162-0.645 1.551-1.059 1.589-0.9 0.083-1.584-0.595-2.455-1.166-1.364-0.894-2.135-1.451-3.459-2.324-1.53-1.008-0.538-1.563 0.334-2.469 0.228-0.237 4.194-3.844 4.271-4.172 0.010-0.041 0.019-0.194-0.072-0.274s-0.224-0.053-0.321-0.031q-0.205 0.047-6.538 4.321-0.928 0.637-1.681 0.621c-0.553-0.012-1.618-0.313-2.409-0.57-0.971-0.316-1.742-0.482-1.675-1.018q0.053-0.419 1.153-0.856 6.778-2.953 9.039-3.894c4.305-1.79 5.199-2.101 5.782-2.112 0.128-0.002 0.415 0.030 0.601 0.18 0.12 0.105 0.201 0.251 0.22 0.417l0 0.003c0.021 0.127 0.033 0.273 0.033 0.421 0 0.067-0.002 0.133-0.007 0.198l0-0.009z"></path>
</symbol>
<symbol id="icon-twitter" viewBox="0 0 32 32">
<path fill="#2daae1" style="fill: var(--color4, #2daae1)" d="M32 16c0 8.837-7.163 16-16 16s-16-7.163-16-16 7.163-16 16-16 16 7.163 16 16z"></path>
<path fill="#fff" style="fill: var(--color2, #fff)" d="M26.259 9.635c-0.704 0.321-1.521 0.554-2.377 0.659l-0.041 0.004c0.87-0.527 1.525-1.337 1.842-2.299l0.009-0.030c-0.754 0.459-1.631 0.81-2.567 1.003l-0.053 0.009-0.054 0.009c-0.77-0.821-1.861-1.332-3.072-1.332-2.324 0-4.208 1.884-4.208 4.208 0 0.002 0 0.003 0 0.004v-0c0 0.329 0.037 0.651 0.108 0.959-3.507-0.181-6.591-1.847-8.659-4.377l-0.017-0.021c-0.359 0.607-0.572 1.338-0.572 2.118 0 1.454 0.737 2.736 1.859 3.492l0.015 0.009c-0.712-0.022-1.373-0.218-1.948-0.548l0.020 0.011 0.021 0.011v0.053c0 2.040 1.451 3.74 3.376 4.127-0.331 0.094-0.711 0.148-1.103 0.148-0.002 0-0.004 0-0.006 0h0c-0.272 0-0.535-0.026-0.792-0.074 0.554 1.685 2.098 2.886 3.927 2.923l0.004 0c-1.421 1.124-3.24 1.803-5.217 1.803-0.358 0-0.711-0.022-1.057-0.065l0.041 0.004c1.82 1.186 4.048 1.892 6.441 1.892 0.004 0 0.008 0 0.012 0h-0.001c7.742 0 11.976-6.414 11.976-11.976 0-0.183-0.004-0.364-0.013-0.544 0.818-0.597 1.509-1.31 2.065-2.121l0.019-0.030 0.019-0.030z"></path>
</symbol>
<symbol id="icon--96" viewBox="0 0 32 32">
<path d="M8.967 3.267c-3 1.933-4.633 4.767-4 6.933 0.533 1.667 1.733 3.933 2.633 4.867 0.767 0.833 1.1 0.933 2.933 0.933 1.567 0 2.1 0.133 2.267 0.533 0.367 0.933 0.233 1.033-1.333 1.267-1.1 0.133-1.733 0.067-2.233-0.3-0.9-0.633-1.767-0.633-2-0.033-0.267 0.7 2.3 1.7 4.333 1.7 0.967 0 1.767 0.133 1.767 0.333 0.067 0.533-2.3 1.1-4.567 1.133-1.9 0.033-2.1 0.1-2.1 0.733 0 0.7 0.1 0.7 2.767 0.533 1.5-0.1 3.067-0.267 3.5-0.4 1.4-0.433 0.833 0.767-0.7 1.433-1.1 0.5-1.567 0.967-2.067 2.033-0.533 1.2-0.567 1.467-0.133 1.7 0.333 0.233 0.6 0 1.067-0.833 0.467-0.967 1.433-1.833 2-1.833 0.1 0 0.267 0.533 0.367 1.2 0.133 0.633 0.3 1.367 0.4 1.6 0.1 0.267-0.267 0.6-0.867 0.867-2.3 0.967-1.967 2.833 0.467 2.567 0.767-0.067 1.7 0 2.133 0.133 0.4 0.167 1.1 0.133 1.567-0.033s1.167-0.2 1.533-0.033c0.967 0.333 2.2 0.067 2.433-0.533 0.3-0.767-0.433-1.8-1.5-2.167-0.6-0.2-0.933-0.533-0.833-0.767 0.1-0.267 0.267-1 0.4-1.633 0.1-0.667 0.267-1.2 0.367-1.2 0.567 0 1.533 0.867 2 1.833 0.467 0.833 0.733 1.067 1.067 0.833 0.433-0.233 0.4-0.5-0.133-1.7-0.5-1.067-0.967-1.533-2.067-2.033-1.667-0.733-2.033-1.833-0.5-1.433 0.5 0.133 2.067 0.3 3.5 0.4 2.4 0.167 2.567 0.133 2.567-0.5 0-0.567-0.3-0.667-2.567-0.8-3-0.2-4.5-0.7-4.233-1.367 0.133-0.367 0.5-0.4 1.833-0.167 1.367 0.233 1.9 0.167 3.133-0.367 1.1-0.467 1.433-0.8 1.3-1.167-0.267-0.667-0.567-0.667-1.8-0.033-0.667 0.333-1.4 0.433-2.333 0.3-1.5-0.233-1.767-0.467-1.467-1.267 0.167-0.4 0.7-0.533 2.267-0.533 1.833 0 2.167-0.1 2.933-0.933 2.3-2.433 3.267-6.167 2.167-8.3-0.6-1.167-2.767-3.167-4.2-3.9l-0.967-0.533 1 1.967c0.6 1.2 0.933 2.3 0.867 2.9l-0.1 0.967-0.833-1.4c-0.467-0.8-0.967-1.433-1.133-1.433-0.133 0-0.233 0.967-0.133 2.133 0.1 1.6 0.367 2.467 1 3.467 0.7 1.033 0.833 1.533 0.633 2.267-0.2 0.8-0.467 1-1.7 1.2-1.567 0.267-1.967 0-2-1.233 0-0.367-0.167-0.9-0.333-1.167-0.2-0.333-0.133-0.667 0.233-1.1 0.7-0.733 0.133-1.4-1.167-1.4-0.633 0-0.867-0.133-0.767-0.5 0.067-0.267 0.2-1.633 0.233-3l0.133-2.5-0.667 2.467c-0.367 1.367-0.733 2.567-0.833 2.633-0.4 0.4-0.967-0.7-1.567-2.833l-0.633-2.267 0.167 2.333c0.1 1.267 0.3 2.7 0.4 3.133 0.2 0.733 0.167 0.767-0.6 0.6-1.167-0.3-1.933 0.567-1.167 1.333 0.367 0.367 0.433 0.733 0.233 1.233-0.167 0.367-0.367 1.133-0.5 1.633-0.133 0.7-0.333 0.9-0.7 0.767-0.3-0.1-0.967-0.2-1.5-0.2-0.767 0-1.067-0.2-1.333-0.933-0.267-0.633-0.233-1.033 0-1.4 1.033-1.4 1.7-3.3 1.7-4.933 0-0.933-0.1-1.733-0.233-1.733-0.167 0-0.633 0.633-1.1 1.433l-0.833 1.4-0.1-0.967c-0.067-0.6 0.267-1.7 0.867-2.933 0.567-1.067 1-1.933 0.933-1.933-0.033 0-0.733 0.433-1.567 0.933z"></path>
</symbol>
</defs>
</svg>
