<svg xmlns="http://www.w3.org/2000/svg" version="1.0" viewBox="0 0 64 64"><path d="M31.1 3.3c-.1 2.6-.7 4-1.8 4.4-3.8 1.5-8.5 5.4-11 9-1.4 2.1-2.9 3.9-3.4 4.1-2.2.9.5 9.8 4.1 13.7 1 1.1 2 3.3 2.2 5l.3 3h21l.3-3c.2-1.7 1.2-3.9 2.2-5 3.6-3.8 6.5-13.5 4.1-13.5-.5 0-1.1-1.4-1.5-3-.3-1.7-1.4-3.3-2.3-3.7-1-.3-2.5-1.4-3.3-2.4-.8-1-3.3-2.4-5.5-3.1-3.6-1.2-4.1-1.7-4.6-5.3l-.6-4-.2 3.8zm3.8 7.1c.7.8 2.1 1.2 3.3.8 1.8-.4 2-.2 1.5 2-.6 2.2-.4 2.5 1.7 2.1 2.5-.5 5.6 1.9 5.6 4.3 0 1.1-2.7 1.4-15.1 1.4-13.1 0-15-.2-13.9-1.4.6-.8 1.7-1.3 2.4-1 .7.3 1.2-.5 1.1-2.3 0-2.4.4-2.8 2.8-2.8 1.9.1 2.7-.4 2.7-1.6 0-2.9 5.8-4 7.9-1.5zM48 24c0 .6-6 1-16 1s-16-.4-16-1 6-1 16-1 16 .4 16 1zm-28.4 3.7c-.5-1.6.6-1.7 13.4-1.7 7.6 0 14.1.4 14.4.9.3.5-.4 2.3-1.7 4.2-6.5 9.6-20.9 9.6-27.4 0-2.4-3.6-2.1-6.4.4-3.4 1.3 1.7 1.4 1.7.9 0zM32 39.5c2.5 0 5.5-.4 6.8-.8 1.7-.6 2.2-.5 2.2.7 0 1.3-1.5 1.6-9 1.6s-9-.3-9-1.6c0-1.2.5-1.3 2.3-.7 1.2.4 4.2.8 6.7.8z"/><path d="M30.7 11.7c-.4.3-.7 1.1-.7 1.7 0 .6.5.5 1.2-.2.6-.6.9-1.4.7-1.7-.3-.3-.9-.2-1.2.2zM34 15c0 .5.5 1 1 1 .6 0 1-.5 1-1 0-.6-.4-1-1-1-.5 0-1 .4-1 1zM24 15.9c0 .5.5 1.3 1 1.6.6.3 1 .2 1-.4 0-.5-.4-1.3-1-1.6-.5-.3-1-.2-1 .4zM42.5 18c.3.5 1.1 1 1.6 1 .6 0 .7-.5.4-1-.3-.6-1.1-1-1.6-1-.6 0-.7.4-.4 1zM28.5 19c-.3.5-.2 1 .4 1 .5 0 1.3-.5 1.6-1 .3-.6.2-1-.4-1-.5 0-1.3.4-1.6 1zM22 33.5c1.3 1.4 2.6 2.3 2.8 2 .7-.7-2.9-4.5-4.1-4.5-.6 0 0 1.1 1.3 2.5zM18 4.9c0 1.3 2.9 3.5 3.7 2.8.7-.8-1.5-3.7-2.8-3.7-.5 0-.9.4-.9.9zM42.5 6c-1 1.1-1.4 2-.8 2 .5 0 1.8-.9 2.8-2 1-1.1 1.4-2 .8-2-.5 0-1.8.9-2.8 2zM2.4 28.7c.3 1 1 4.7 1.6 8.3 1.6 9.6 1.7 9.7 7.5 14 4.6 3.4 5.4 4.5 5.7 7.7l.3 3.8h10l-.1-6.6c-.2-8.1-1.3-10.3-6.5-13-2.5-1.2-4.6-3.2-5.4-5.2C14 34.3 9.9 30 8.2 30c-.5 0-1.2-.7-1.6-1.5-.8-2.2-4.9-2-4.2.2zm4.6 5c1.2 4.4 6.7 11.9 7.9 10.8.2-.3-.8-1.9-2.4-3.5-2-2.1-2.4-3-1.3-3 .8 0 2.3.9 3.4 2.1 1 1.2 3.2 2.8 4.9 3.6 5.1 2.6 6.5 5.1 6.5 12.1v6.3l-3.2-.3c-2.8-.3-3.4-.8-4.3-4.2-.8-2.8-2.4-5-5.6-7.4C7.5 46 7.4 45.9 5.5 37c-1.8-8.4-1.7-8-.6-8 .4 0 1.4 2.1 2.1 4.7zm3 .3c0 1.1-.2 2-.4 2s-.6-.9-.9-2c-.3-1.1-.1-2 .4-2s.9.9.9 2zM57.4 28.5c-.4.8-1.1 1.5-1.6 1.5-1.7 0-5.8 4.3-7.3 7.7-.8 2-2.9 4-5.4 5.2-5.2 2.7-6.3 4.9-6.5 13l-.1 6.6h10l.3-3.8c.3-3.2 1.1-4.3 5.7-7.7 5.8-4.3 5.9-4.4 7.5-14 .6-3.6 1.3-7.3 1.6-8.3.7-2.2-3.4-2.4-4.2-.2zm2.6.9c0 1.6-3.2 15-3.8 16.1-.4.7-2.8 2.9-5.3 4.9-3.5 2.6-4.9 4.5-5.6 7.3-.8 3.3-1.3 3.8-4.1 4.1l-3.2.3V56c0-7.4 1-9.4 5.8-11.9 2-1 4.6-2.8 5.6-4 1.1-1.2 2.6-2.1 3.4-2.1 1.1 0 .7.9-1.3 3-1.6 1.6-2.6 3.2-2.4 3.5 1.2 1.1 6.7-6.4 7.9-10.8.7-2.6 1.7-4.7 2.1-4.7.5 0 .9.2.9.4zM55.3 34c-.3 1.1-.7 2-.9 2-.2 0-.4-.9-.4-2s.4-2 .9-2 .7.9.4 2z"/></svg>