<svg xmlns="http://www.w3.org/2000/svg" version="1.0" viewBox="0 0 96 96"><path d="M1 20.4c0 4.7.5 8.8 1 9.1.6.4 1 5.5 1 12.1V53h5V41.6c0-6.6.4-11.7 1-12.1 1.3-.8 1.3-17.5 0-17.5-.5 0-1.1 2.8-1.3 6.2l-.3 6.3-.2-6.3C7 10.6 5 9.9 5 17.4c0 3-.5 5.8-1 6.1-.6.4-1-1.7-1-5.4 0-3.4-.4-6.1-1-6.1s-1 3.5-1 8.4zM91.3 15.2c-4.5 5-5.3 8.1-5.3 20.8 0 11.2.1 12 1.9 12 1.3 0 2.1.8 2.3 2.2.2 1.5 1.1 2.4 2.6 2.6l2.2.3v-20C95 22 94.6 13 94.2 13c-.5 0-1.8 1-2.9 2.2zM41.3 17c-9.2 1.9-17.4 8.4-22.1 17.5-2.1 4.1-2.6 6.4-2.6 13-.1 9.5 2.7 16.6 9 22.9C41.5 86.3 69.1 80.3 77 59.3c4-10.7 1.8-23.6-5.5-32.1-6.7-7.7-20.1-12.3-30.2-10.2zm13.8 8.5C65.3 29 71 37.1 71 48c0 11.4-6 19.5-16.9 22.6C39 75.1 24 63.8 24 48c0-12.9 10.6-23.6 23.6-23.9 1.7-.1 5.1.6 7.5 1.4z"/><path d="M40.9 27.3c-6.1 2.3-9.7 5.5-12.5 11.2-2.1 4.5-2.6 6.5-2.2 10.9 1 11.8 9.8 20.1 21.3 20.1C60.4 69.4 69 60.8 69 48c0-6.3-1.6-10.7-5.4-14.8-5.1-5.7-15.8-8.4-22.7-5.9zm4.2 11.2c2.7 1.4 3.2 1.4 5.1 0 3-2 5-1.9 8.2.6 2.1 1.6 2.6 2.9 2.6 6.4 0 3.7-.6 5-3.8 8.4-4.8 5.1-9.4 6.1-15 3.2-7.7-3.9-10.6-12.8-5.7-17.6 2.8-2.9 4.5-3.1 8.6-1z"/><path d="M37.7 40.8c-5.1 5.6 3.8 17.8 11.5 15.9 3.6-.9 7.9-4.6 9.3-8 2.8-6.8-3-12.4-8-7.7l-2.4 2.2-2.7-2.1c-3.3-2.6-5.6-2.7-7.7-.3zM2.2 68.7l.3 13.8h6l.3-13.8.3-13.7H1.9l.3 13.7zM87.6 67.6c-.8 13.5-.3 15.4 3.9 15.4 1.3 0 2.6-.7 2.9-1.6.3-.9.6-7.2.6-14V55H88.3l-.7 12.6z"/></svg>